<svg width="143" height="138" viewBox="0 0 143 138" fill="none" xmlns="http://www.w3.org/2000/svg">
<path d="M36.8881 65.1823C37.2162 65.0854 37.4976 64.9817 37.6878 64.8918C37.6878 64.8918 37.3472 65.0693 36.8881 65.1823C35.7267 65.5253 33.9799 65.7842 33.6186 65.0535C33.2325 64.2725 34.0458 63.3471 34.3921 62.989L64.7105 28.5979C65.1695 28.1654 66.3699 27.4634 67.4999 28.1158C68.6299 28.7682 81.9487 42.596 88.4668 49.4283L51.127 60.1877C49.7879 60.5735 48.3571 60.4885 47.0731 59.9468L45.4308 59.2539C45.165 59.1417 44.8679 59.1276 44.5926 59.214L36.3304 61.8063C36.3304 61.8063 33.9876 62.9647 34.7901 64.4743C35.269 65.3752 36.2084 65.3495 36.8881 65.1823Z" fill="#00F7A5"/>
<path d="M37.6878 64.8918C36.8244 65.3 34.082 65.9906 33.6186 65.0535C33.2325 64.2725 34.0458 63.3471 34.3921 62.989L64.7105 28.5979C65.1695 28.1654 66.3699 27.4634 67.4999 28.1158C68.6299 28.7682 81.9487 42.596 88.4668 49.4283L51.127 60.1877C49.7879 60.5735 48.3571 60.4885 47.0731 59.9468L45.4308 59.2539C45.165 59.1417 44.8679 59.1276 44.5926 59.214L36.3304 61.8063C36.3304 61.8063 33.9876 62.9647 34.7901 64.4743C35.5925 65.9839 37.6878 64.8918 37.6878 64.8918Z" stroke="#00F7A5" stroke-width="0.406031"/>
<path d="M36.2381 67.4034C34.7528 67.8014 33.8815 67.8467 33.1591 67.2997C45.5698 80.115 70.8208 106.161 72.5397 107.823C74.2586 109.485 75.1392 109.603 75.3647 109.454C91.9749 104.605 125.677 94.7256 127.605 93.9969C129.532 93.2683 128.614 91.1617 127.914 90.1996C117.338 79.2807 95.6356 56.874 93.4339 54.5984C91.2322 52.3228 88.1459 52.5219 86.8779 52.9058L36.2381 67.4034Z" fill="#23253A"/>
<path d="M33.1591 67.2997C31.9942 66.4179 31.5542 64.2805 32.8405 63.1399L63.8595 27.8979C64.401 27.4432 65.7797 26.7465 66.9628 27.597C68.1458 28.4474 68.5905 28.8854 68.6649 28.9981L88.3099 49.3382M33.1591 67.2997C33.8815 67.8467 34.7528 67.8014 36.2381 67.4034L86.8779 52.9058C88.1459 52.5219 91.2322 52.3228 93.4339 54.5984C95.6356 56.874 117.338 79.2807 127.914 90.1996C128.614 91.1617 129.532 93.2683 127.605 93.9969C125.677 94.7256 91.9749 104.605 75.3647 109.454C75.1392 109.603 74.2586 109.485 72.5397 107.823C70.8208 106.161 45.5698 80.115 33.1591 67.2997Z" stroke="#00F7A5" stroke-width="0.406031"/>
<ellipse cx="82.6463" cy="32.7746" rx="14.2588" ry="14.0736" transform="rotate(-7.73985 82.6463 32.7746)" fill="#00F7A5" stroke="#23253A" stroke-width="0.812063"/>
<ellipse cx="84.5298" cy="32.894" rx="13.1477" ry="14.0736" transform="rotate(-7.73985 84.5298 32.894)" fill="#00F7A5" stroke="#23253A" stroke-width="0.812063"/>
<path d="M128.733 92.7659C128.75 92.4963 128.819 91.602 128.97 90.182C129.12 88.7621 128.457 87.4449 128.107 86.9639C117.92 76.3389 96.9494 54.4524 94.5691 51.9063C92.1888 49.3602 89.5087 49.1939 88.4661 49.4291C78.4972 52.2821 58.2537 58.1278 51.3919 60.1101C49.8727 60.5489 48.2619 60.4494 46.805 59.8347L45.6638 59.3532C45.2456 59.1768 44.7825 59.1449 44.3451 59.2662C42.6157 59.7461 38.0914 61.0264 37.2188 61.525C40.1601 61.0606 39.6963 63.5438 38.6121 64.3115C36.8628 65.5499 35.0077 66.1691 33.946 65.2403C32.8843 64.3115 34.4324 62.7572 34.4324 62.7572C34.4324 62.7572 57.8632 36.2117 64.4643 28.5517C65.548 27.2943 67.4894 27.9357 67.017 27.6161C65.5774 26.6419 64.227 27.4948 63.7317 28.0431C54.5002 38.5627 35.4585 60.2329 33.1431 62.7572C30.8277 65.2814 33.1431 67.4076 33.946 67.872" stroke="#00F7A5" stroke-width="0.406031"/>
<path d="M32.8838 67.0989C33.7507 68.0896 35.4804 67.7155 36.2368 67.4046L86.8766 52.9071C88.1446 52.5231 91.2309 52.3241 93.4326 54.5996C95.6343 56.8752 117.337 79.2819 127.913 90.2008C128.178 90.3952 128.708 90.9696 128.708 91.7127" stroke="#00F7A5" stroke-width="0.406031"/>
<path d="M116.363 55.2454C116.792 59.446 116.457 62.0923 116.457 62.0923C116.457 62.0923 116.235 62.1223 116.114 62.1347C112.287 62.5263 108.825 59.3274 108.381 54.9897C107.937 50.6521 110.68 46.8183 114.507 46.4267C115.02 46.3742 116.267 46.4316 116.267 46.4316C116.267 46.4316 115.978 51.4888 116.363 55.2454Z" fill="#00F7A5" stroke="#23253A" stroke-width="0.812063"/>
<path d="M42.406 82.3189C47.6832 78.507 51.4753 76.9153 51.4753 76.9153C51.4753 76.9153 51.686 77.1876 51.7958 77.3396C55.269 82.1479 53.667 89.2367 48.2176 93.173C42.7682 97.1093 35.535 96.4024 32.0618 91.5941C31.5965 90.95 30.7114 89.2402 30.7114 89.2402C30.7114 89.2402 37.6866 85.7279 42.406 82.3189Z" fill="#00F7A5" stroke="#23253A" stroke-width="0.812062"/>
<ellipse cx="116.975" cy="54.291" rx="6.96619" ry="7.89501" transform="rotate(-5.84191 116.975 54.291)" fill="#00F7A5" stroke="#23253A" stroke-width="0.812063"/>
<ellipse cx="40.6593" cy="82.2383" rx="10.7399" ry="12.1719" transform="rotate(-125.842 40.6593 82.2383)" fill="#00F7A5" stroke="#23253A" stroke-width="0.812062"/>
<path d="M44.5218 40.2894C43.8311 43.4637 39.3355 45.1807 34.4807 44.1244C29.6258 43.0681 26.25 39.6384 26.9407 36.4641C27.2071 35.2399 27.331 34.2826 27.331 34.2826C29.1854 34.399 33.7998 36.2938 36.7824 36.9427C39.8416 37.6083 43.7225 37.2764 45.0183 37.902C45.0183 37.902 44.7772 39.1153 44.5218 40.2894Z" fill="#00F7A5" stroke="#23253A" stroke-width="0.812063"/>
<ellipse cx="36.1689" cy="36.2316" rx="8.99621" ry="5.88214" transform="rotate(12.2751 36.1689 36.2316)" fill="#00F7A5" stroke="#23253A" stroke-width="0.812063"/>
<ellipse cx="1.65804" cy="2.53742" rx="1.65804" ry="2.53742" transform="matrix(-0.456076 -0.889941 -0.889941 0.456076 40.0605 63.6807)" stroke="#00F7A5" stroke-width="0.406031"/>
<ellipse cx="0.58473" cy="0.894854" rx="0.58473" ry="0.894854" transform="matrix(-0.456076 -0.889941 -0.889941 0.456076 38.1084 63.4756)" stroke="#00F7A5" stroke-width="0.406031"/>
<path d="M102.141 67.7874C104.066 69.5267 108.045 69.522 110.805 65.4658C113.566 61.4095 115.499 56.2483 120.002 59.685C124.505 63.1217 123.024 67.4982 121.46 70.5707C119.895 73.6432 114.937 76.4309 114.725 78.6103C114.619 79.7058 114.893 80.4759 115.215 80.9569L115.769 81.5146C115.613 81.4248 115.406 81.2414 115.215 80.9569L102.141 67.7874Z" fill="#23253A"/>
<path d="M102.141 67.7874C104.066 69.5267 108.045 69.522 110.805 65.4658C113.566 61.4095 115.499 56.2483 120.002 59.685C124.505 63.1217 123.024 67.4982 121.46 70.5707C119.895 73.6432 114.937 76.4309 114.725 78.6103C114.556 80.3538 115.35 81.273 115.769 81.5146" stroke="#00F7A5" stroke-width="0.406031"/>
<path d="M116.687 82.4621L124.407 90.4761C124.914 91.0478 125.531 92.2973 123.947 92.7219C122.363 93.1464 90.1106 102.761 74.1826 107.516" stroke="#00F7A5" stroke-width="0.406031" stroke-dasharray="1.62 1.62"/>
<path d="M101.513 67.4244L91.9833 57.1096C91.3879 56.2078 89.5535 54.5768 86.9789 55.2666C84.4044 55.9564 52.9715 64.998 37.5768 69.4326" stroke="#00F7A5" stroke-width="0.406031" stroke-dasharray="1.62 1.62"/>
<path d="M84.7025 60.7186C86.3189 60.2217 88.0772 60.6803 89.245 61.9032L102.535 75.8203C104.822 78.2158 103.798 82.1805 100.636 83.1681L86.7569 87.5035C83.8319 88.4172 80.6417 87.6065 78.5077 85.4073L66.5591 73.0933C64.2354 70.6986 65.2627 66.6942 68.4521 65.7138L84.7025 60.7186Z" fill="#23253A" stroke="#00F7A5" stroke-width="0.406031"/>
<path d="M66.6879 70.3277C65.5058 68.9465 65.488 67.5976 65.9979 66.8398C66.2205 66.5092 66.6146 66.3602 66.9951 66.2417L84.6882 60.7341C86.3128 60.2284 88.0836 60.6897 89.255 61.9237L103.455 76.8832C103.968 77.4232 104.458 78.1246 104.196 78.8215C103.935 79.5169 103.265 79.9543 102.843 80.1193L87.1006 85.126C84.2547 86.0311 81.1423 85.3034 79.0379 83.1844C74.1678 78.2805 67.8353 71.6683 66.6879 70.3277Z" fill="#00F7A5"/>
<path d="M87.9193 82.1971C84.9241 81.3875 81.5775 79.8267 79.1748 77.6046C76.4347 75.0704 75.8801 71.2438 79.454 68.3159C83.4632 65.0314 88.1116 64.6451 89.0811 67.2465C89.8567 69.3277 88.4919 71.6881 84.9826 73.5144C80.9721 75.6016 80.1824 73.0812 81.5512 71.5341C82.6461 70.2965 84.8767 68.8134 86.7302 68.5671M91.4959 69.3093C91.4959 69.3093 92.9403 69.2348 93.3226 70.9988C93.7385 72.9177 91.209 76.9714 85.5312 78.1985" stroke="#23253A" stroke-width="2.43619" stroke-linecap="round" stroke-linejoin="round"/>
<ellipse cx="118.111" cy="65.0489" rx="3.08075" ry="4.16839" transform="rotate(13.7256 118.111 65.0489)" fill="#2E2E2E" stroke="#00F7A5" stroke-width="0.406031"/>
<ellipse cx="119.045" cy="65.2003" rx="3.08075" ry="4.16839" transform="rotate(13.7256 119.045 65.2003)" fill="#23253A" stroke="#00F7A5" stroke-width="0.406031"/>
</svg>
